<?xml version="1.0" encoding="iso-8859-1"?><!-- Generator: Adobe Illustrator 22.1.0, SVG Export Plug-In . SVG Version: 6.00 Build 0)  --><svg xmlns="http://www.w3.org/2000/svg" xmlns:xlink="http://www.w3.org/1999/xlink" viewBox="0 0 64 64"><linearGradient id="SVGID_1__79041" gradientUnits="userSpaceOnUse" x1="32" y1="9.0833" x2="32" y2="54.6759" spreadMethod="reflect"><stop offset="0" style="stop-color:#1A6DFF"/><stop offset="1" style="stop-color:#C822FF"/></linearGradient><path style="fill:url(#SVGID_1__79041);" d="M50,55H14c-2.757,0-5-2.243-5-5V14c0-2.757,2.243-5,5-5h36c2.757,0,5,2.243,5,5v36  C55,52.757,52.757,55,50,55z M14,11c-1.654,0-3,1.346-3,3v36c0,1.654,1.346,3,3,3h36c1.654,0,3-1.346,3-3V14c0-1.654-1.346-3-3-3H14  z"/><linearGradient id="SVGID_2__79041" gradientUnits="userSpaceOnUse" x1="32" y1="19" x2="32" y2="45" spreadMethod="reflect"><stop offset="0" style="stop-color:#6DC7FF"/><stop offset="1" style="stop-color:#E6ABFF"/></linearGradient><path style="fill:url(#SVGID_2__79041);" d="M43,29h-1c-1.11,0-2-0.9-2-2c0-4.4-3.6-8-8-8h-5c-4.4,0-8,3.6-8,8v10c0,4.4,3.6,8,8,8h10  c4.4,0,8-3.6,8-8v-6C45,29.9,44.1,29,43,29z M27,25h5c1.1,0,2,0.9,2,2c0,1.1-0.9,2-2,2h-5c-1.1,0-2-0.9-2-2C25,25.9,25.9,25,27,25z   M37,39H27c-1.1,0-2-0.9-2-2c0-1.1,0.9-2,2-2h10c1.1,0,2,0.9,2,2C39,38.1,38.1,39,37,39z"/></svg>